<svg id="visual" viewBox="0 0 900 400" width="900" height="400" xmlns="http://www.w3.org/2000/svg" xmlns:xlink="http://www.w3.org/1999/xlink" version="1.1"><rect x="0" y="0" width="900" height="400" fill="#000000"></rect><path d="M0 236L21.5 235.7C43 235.3 86 234.7 128.8 236.2C171.7 237.7 214.3 241.3 257.2 251.5C300 261.7 343 278.3 385.8 278C428.7 277.7 471.3 260.3 514.2 256.2C557 252 600 261 642.8 259.5C685.7 258 728.3 246 771.2 243.5C814 241 857 248 878.5 251.5L900 255L900 401L878.5 401C857 401 814 401 771.2 401C728.3 401 685.7 401 642.8 401C600 401 557 401 514.2 401C471.3 401 428.7 401 385.8 401C343 401 300 401 257.2 401C214.3 401 171.7 401 128.8 401C86 401 43 401 21.5 401L0 401Z" fill="#4facf7"></path><path d="M0 314L21.5 307.2C43 300.3 86 286.7 128.8 283.8C171.7 281 214.3 289 257.2 295.7C300 302.3 343 307.7 385.8 308.8C428.7 310 471.3 307 514.2 299.2C557 291.3 600 278.7 642.8 280.3C685.7 282 728.3 298 771.2 300.7C814 303.3 857 292.7 878.5 287.3L900 282L900 401L878.5 401C857 401 814 401 771.2 401C728.3 401 685.7 401 642.8 401C600 401 557 401 514.2 401C471.3 401 428.7 401 385.8 401C343 401 300 401 257.2 401C214.3 401 171.7 401 128.8 401C86 401 43 401 21.5 401L0 401Z" fill="#2b9dfc"></path><path d="M0 298L21.5 297.2C43 296.3 86 294.7 128.8 299.5C171.7 304.3 214.3 315.7 257.2 320.5C300 325.3 343 323.7 385.8 322.8C428.7 322 471.3 322 514.2 320.5C557 319 600 316 642.8 317C685.7 318 728.3 323 771.2 325.5C814 328 857 328 878.5 328L900 328L900 401L878.5 401C857 401 814 401 771.2 401C728.3 401 685.7 401 642.8 401C600 401 557 401 514.2 401C471.3 401 428.7 401 385.8 401C343 401 300 401 257.2 401C214.3 401 171.7 401 128.8 401C86 401 43 401 21.5 401L0 401Z" fill="#008cff"></path><path d="M0 332L21.5 330.7C43 329.3 86 326.7 128.8 327C171.7 327.3 214.3 330.7 257.2 334.5C300 338.3 343 342.7 385.8 342C428.7 341.3 471.3 335.7 514.2 331.7C557 327.7 600 325.3 642.8 325.5C685.7 325.7 728.3 328.3 771.2 331.2C814 334 857 337 878.5 338.5L900 340L900 401L878.5 401C857 401 814 401 771.2 401C728.3 401 685.7 401 642.8 401C600 401 557 401 514.2 401C471.3 401 428.7 401 385.8 401C343 401 300 401 257.2 401C214.3 401 171.7 401 128.8 401C86 401 43 401 21.5 401L0 401Z" fill="#007aff"></path><path d="M0 372L21.5 368.7C43 365.3 86 358.7 128.8 357.5C171.7 356.3 214.3 360.7 257.2 364.8C300 369 343 373 385.8 374.3C428.7 375.7 471.3 374.3 514.2 373.8C557 373.3 600 373.7 642.8 370C685.7 366.3 728.3 358.7 771.2 357.3C814 356 857 361 878.5 363.5L900 366L900 401L878.5 401C857 401 814 401 771.2 401C728.3 401 685.7 401 642.8 401C600 401 557 401 514.2 401C471.3 401 428.7 401 385.8 401C343 401 300 401 257.2 401C214.3 401 171.7 401 128.8 401C86 401 43 401 21.5 401L0 401Z" fill="#0066ff"></path></svg>