<svg id="visual" viewBox="0 0 900 400" width="900" height="400" xmlns="http://www.w3.org/2000/svg" xmlns:xlink="http://www.w3.org/1999/xlink" version="1.1"><rect x="0" y="0" width="900" height="400" fill="#000000"></rect><path d="M0 162L21.5 162.3C43 162.7 86 163.3 128.8 161.8C171.7 160.3 214.3 156.7 257.2 146.5C300 136.3 343 119.7 385.8 120C428.7 120.3 471.3 137.7 514.2 141.8C557 146 600 137 642.8 138.5C685.7 140 728.3 152 771.2 154.5C814 157 857 150 878.5 146.5L900 143L900 0L878.5 0C857 0 814 0 771.2 0C728.3 0 685.7 0 642.8 0C600 0 557 0 514.2 0C471.3 0 428.7 0 385.8 0C343 0 300 0 257.2 0C214.3 0 171.7 0 128.8 0C86 0 43 0 21.5 0L0 0Z" fill="#4facf7"></path><path d="M0 84L21.5 90.8C43 97.7 86 111.3 128.8 114.2C171.7 117 214.3 109 257.2 102.3C300 95.7 343 90.3 385.8 89.2C428.7 88 471.3 91 514.2 98.8C557 106.7 600 119.3 642.8 117.7C685.7 116 728.3 100 771.2 97.3C814 94.7 857 105.3 878.5 110.7L900 116L900 0L878.5 0C857 0 814 0 771.2 0C728.3 0 685.7 0 642.8 0C600 0 557 0 514.2 0C471.3 0 428.7 0 385.8 0C343 0 300 0 257.2 0C214.3 0 171.7 0 128.8 0C86 0 43 0 21.5 0L0 0Z" fill="#2b9dfc"></path><path d="M0 100L21.5 100.8C43 101.7 86 103.3 128.8 98.5C171.7 93.7 214.3 82.3 257.2 77.5C300 72.7 343 74.3 385.8 75.2C428.7 76 471.3 76 514.2 77.5C557 79 600 82 642.8 81C685.7 80 728.3 75 771.2 72.5C814 70 857 70 878.5 70L900 70L900 0L878.5 0C857 0 814 0 771.2 0C728.3 0 685.7 0 642.8 0C600 0 557 0 514.2 0C471.3 0 428.7 0 385.8 0C343 0 300 0 257.2 0C214.3 0 171.7 0 128.8 0C86 0 43 0 21.5 0L0 0Z" fill="#008cff"></path><path d="M0 66L21.5 67.3C43 68.7 86 71.3 128.8 71C171.7 70.7 214.3 67.3 257.2 63.5C300 59.7 343 55.3 385.8 56C428.7 56.7 471.3 62.3 514.2 66.3C557 70.3 600 72.7 642.8 72.5C685.7 72.3 728.3 69.7 771.2 66.8C814 64 857 61 878.5 59.5L900 58L900 0L878.5 0C857 0 814 0 771.2 0C728.3 0 685.7 0 642.8 0C600 0 557 0 514.2 0C471.3 0 428.7 0 385.8 0C343 0 300 0 257.2 0C214.3 0 171.7 0 128.8 0C86 0 43 0 21.5 0L0 0Z" fill="#007aff"></path><path d="M0 26L21.5 29.3C43 32.7 86 39.3 128.8 40.5C171.7 41.7 214.3 37.3 257.2 33.2C300 29 343 25 385.8 23.7C428.7 22.3 471.3 23.7 514.2 24.2C557 24.7 600 24.3 642.8 28C685.7 31.7 728.3 39.3 771.2 40.7C814 42 857 37 878.5 34.5L900 32L900 0L878.5 0C857 0 814 0 771.2 0C728.3 0 685.7 0 642.8 0C600 0 557 0 514.2 0C471.3 0 428.7 0 385.8 0C343 0 300 0 257.2 0C214.3 0 171.7 0 128.8 0C86 0 43 0 21.5 0L0 0Z" fill="#0066ff"></path></svg>