<?xml version="1.0" encoding="utf-8"?>
<svg
	version="1.1"
	xmlns="http://www.w3.org/2000/svg"
	xmlns:xlink="http://www.w3.org/1999/xlink"
	x="0%" y="0%"
	width="100%" height="100%"
	viewBox="0 0 24.0 24.0"
	enable-background="new 0 0 24.0 24.0"
	xml:space="preserve">
	<path
		fill="#CCCCCC"
		stroke="#000000"
		fill-opacity="1.000"
		stroke-opacity="1.000"
		fill-rule="nonzero"
		stroke-width="0.0"
		stroke-linejoin="miter"
		stroke-linecap="square"
		d="M0.00,0.00L24.00,0.00L24.00,24.00L0.00,24.00z"/>
	<path
		fill="#00FAFF"
		stroke="#00F8FF"
		fill-opacity="1.000"
		stroke-opacity="1.000"
		fill-rule="nonzero"
		stroke-width="0.24"
		stroke-linejoin="miter"
		stroke-linecap="square"
		d="M-0.53,-0.29C0.56,3.37,1.64,7.03,3.81,7.69C5.98,8.35,9.24,6.01,12.00,5.61C14.76,5.20,17.02,6.74,19.00,6.08C20.98,5.42,22.69,2.57,24.39,-0.29"/>
	<path
		fill="#00AAFF"
		stroke="#00ACFF"
		fill-opacity="1.000"
		stroke-opacity="1.000"
		fill-rule="nonzero"
		stroke-width="0.24"
		stroke-linejoin="miter"
		stroke-linecap="square"
		d="M0.00,2.00C0.99,4.87,1.98,7.73,4.00,8.00C6.02,8.27,9.09,5.93,12.00,5.61C14.91,5.28,17.68,6.97,20.00,5.00C22.32,3.03,24.18,-2.61,25.00,0.00C25.82,2.61,25.60,13.48,24.00,16.00C22.40,18.52,19.41,12.68,16.00,12.00C12.59,11.32,8.74,15.81,6.00,17.00C3.26,18.19,1.63,16.10,0.00,14.00"/>
	<path
		fill="#0041FF"
		stroke="#0040FF"
		fill-opacity="1.000"
		stroke-opacity="1.000"
		fill-rule="nonzero"
		stroke-width="0.24"
		stroke-linejoin="miter"
		stroke-linecap="square"
		d="M0.00,14.00C1.76,15.92,3.53,17.85,6.00,17.00C8.47,16.15,11.65,12.53,14.41,12.00C17.17,11.47,19.52,14.03,21.00,15.00C22.48,15.97,23.10,15.36,24.00,16.00C24.90,16.64,26.10,18.55,25.00,20.29C23.90,22.02,20.51,23.59,18.00,23.00C15.49,22.41,13.85,19.67,11.00,19.00C8.15,18.33,4.07,19.74,0.00,21.15"/>
</svg>